<mxfile host="app.diagrams.net" modified="2024-04-02T13:34:04.058Z" agent="Mozilla/5.0 (Windows NT 10.0; Win64; x64; rv:124.0) Gecko/20100101 Firefox/124.0" etag="L8WncVeRP1sRya9bMeMc" version="24.2.1" type="github">
  <diagram id="C5RBs43oDa-KdzZeNtuy" name="Page-1">
    <mxGraphModel dx="1434" dy="782" grid="1" gridSize="10" guides="1" tooltips="1" connect="1" arrows="1" fold="1" page="1" pageScale="1" pageWidth="827" pageHeight="1169" math="1" shadow="0">
      <root>
        <mxCell id="WIyWlLk6GJQsqaUBKTNV-0" />
        <mxCell id="WIyWlLk6GJQsqaUBKTNV-1" parent="WIyWlLk6GJQsqaUBKTNV-0" />
        <mxCell id="6mV9TBzsEhCEu78aH1kM-79" style="edgeStyle=orthogonalEdgeStyle;rounded=0;orthogonalLoop=1;jettySize=auto;html=1;exitX=0.5;exitY=1;exitDx=0;exitDy=0;entryX=0.5;entryY=0;entryDx=0;entryDy=0;" edge="1" parent="WIyWlLk6GJQsqaUBKTNV-1" source="6mV9TBzsEhCEu78aH1kM-0" target="6mV9TBzsEhCEu78aH1kM-36">
          <mxGeometry relative="1" as="geometry" />
        </mxCell>
        <mxCell id="6mV9TBzsEhCEu78aH1kM-0" value="Split `P_N` into parts of size `X`" style="swimlane;whiteSpace=wrap;html=1;" vertex="1" parent="WIyWlLk6GJQsqaUBKTNV-1">
          <mxGeometry x="64" y="120" width="700" height="230" as="geometry">
            <mxRectangle x="64" y="120" width="130" height="30" as="alternateBounds" />
          </mxGeometry>
        </mxCell>
        <mxCell id="6mV9TBzsEhCEu78aH1kM-71" style="edgeStyle=orthogonalEdgeStyle;rounded=0;orthogonalLoop=1;jettySize=auto;html=1;entryX=0;entryY=0.5;entryDx=0;entryDy=0;" edge="1" parent="6mV9TBzsEhCEu78aH1kM-0" source="6mV9TBzsEhCEu78aH1kM-8" target="6mV9TBzsEhCEu78aH1kM-69">
          <mxGeometry relative="1" as="geometry" />
        </mxCell>
        <mxCell id="6mV9TBzsEhCEu78aH1kM-8" value="&lt;div&gt;Split `P_N` into parts&lt;/div&gt;&lt;div&gt;with size `X`&lt;br&gt;&lt;/div&gt;" style="rounded=1;whiteSpace=wrap;html=1;" vertex="1" parent="6mV9TBzsEhCEu78aH1kM-0">
          <mxGeometry x="236" y="110" width="120" height="60" as="geometry" />
        </mxCell>
        <mxCell id="6mV9TBzsEhCEu78aH1kM-10" value="&lt;div&gt;`P_N = KT_N, UT_N`&lt;/div&gt;&lt;div&gt;&lt;br&gt;&lt;/div&gt;&lt;div&gt;`&quot;len&quot;(KT_N) = &quot;len&quot;(KT_N)/X`&lt;/div&gt;&lt;div&gt;&lt;br&gt;&lt;/div&gt;&lt;div&gt;`&quot;len&quot;(UT_N) = &quot;len&quot;(UT_N)/X`&lt;/div&gt;&lt;div&gt;&lt;br&gt;&lt;/div&gt;&lt;div&gt;`&quot;len&quot;(C_N) = &quot;len&quot;(UT_N)/X`&lt;/div&gt;" style="text;html=1;align=center;verticalAlign=middle;whiteSpace=wrap;rounded=0;" vertex="1" parent="6mV9TBzsEhCEu78aH1kM-0">
          <mxGeometry x="536" y="57.5" width="152" height="165" as="geometry" />
        </mxCell>
        <mxCell id="6mV9TBzsEhCEu78aH1kM-18" style="edgeStyle=orthogonalEdgeStyle;rounded=0;orthogonalLoop=1;jettySize=auto;html=1;entryX=0;entryY=0.5;entryDx=0;entryDy=0;" edge="1" parent="6mV9TBzsEhCEu78aH1kM-0" source="6mV9TBzsEhCEu78aH1kM-14" target="6mV9TBzsEhCEu78aH1kM-8">
          <mxGeometry relative="1" as="geometry" />
        </mxCell>
        <mxCell id="6mV9TBzsEhCEu78aH1kM-14" value="&lt;div&gt;`P_N = KT_N, UT_N`&lt;/div&gt;&lt;div&gt;&lt;br&gt;&lt;/div&gt;&lt;div&gt;`&quot;len&quot;(KT_N) = 1`&lt;/div&gt;&lt;div&gt;&lt;br&gt;&lt;/div&gt;&lt;div&gt;`&quot;len&quot;(UT_N) = 1`&lt;/div&gt;&lt;div&gt;&lt;br&gt;&lt;/div&gt;&lt;div&gt;`&quot;len&quot;(C_N) = 1`&lt;/div&gt;" style="text;html=1;align=center;verticalAlign=middle;whiteSpace=wrap;rounded=0;" vertex="1" parent="6mV9TBzsEhCEu78aH1kM-0">
          <mxGeometry x="64" y="95" width="152" height="90" as="geometry" />
        </mxCell>
        <mxCell id="6mV9TBzsEhCEu78aH1kM-16" value="" style="group" vertex="1" connectable="0" parent="6mV9TBzsEhCEu78aH1kM-0">
          <mxGeometry x="216" y="40" width="284" height="30" as="geometry" />
        </mxCell>
        <mxCell id="6mV9TBzsEhCEu78aH1kM-3" value="`P_N = KT_N, UT_N, C_N`" style="text;html=1;align=center;verticalAlign=middle;whiteSpace=wrap;rounded=0;" vertex="1" parent="6mV9TBzsEhCEu78aH1kM-16">
          <mxGeometry x="150" width="144" height="30" as="geometry" />
        </mxCell>
        <mxCell id="6mV9TBzsEhCEu78aH1kM-4" value="`P_1 = KT_1, UT_1, C_1`" style="text;html=1;align=center;verticalAlign=middle;whiteSpace=wrap;rounded=0;" vertex="1" parent="6mV9TBzsEhCEu78aH1kM-16">
          <mxGeometry width="124" height="30" as="geometry" />
        </mxCell>
        <mxCell id="6mV9TBzsEhCEu78aH1kM-5" style="edgeStyle=orthogonalEdgeStyle;rounded=0;orthogonalLoop=1;jettySize=auto;html=1;" edge="1" parent="6mV9TBzsEhCEu78aH1kM-16" source="6mV9TBzsEhCEu78aH1kM-4" target="6mV9TBzsEhCEu78aH1kM-3">
          <mxGeometry relative="1" as="geometry" />
        </mxCell>
        <mxCell id="6mV9TBzsEhCEu78aH1kM-73" style="edgeStyle=orthogonalEdgeStyle;rounded=0;orthogonalLoop=1;jettySize=auto;html=1;" edge="1" parent="6mV9TBzsEhCEu78aH1kM-0" source="6mV9TBzsEhCEu78aH1kM-69" target="6mV9TBzsEhCEu78aH1kM-10">
          <mxGeometry relative="1" as="geometry" />
        </mxCell>
        <mxCell id="6mV9TBzsEhCEu78aH1kM-69" value="Update `C_N` to match length of `UT_N`" style="rounded=1;whiteSpace=wrap;html=1;" vertex="1" parent="6mV9TBzsEhCEu78aH1kM-0">
          <mxGeometry x="386" y="110" width="120" height="60" as="geometry" />
        </mxCell>
        <mxCell id="6mV9TBzsEhCEu78aH1kM-2" style="edgeStyle=orthogonalEdgeStyle;rounded=0;orthogonalLoop=1;jettySize=auto;html=1;" edge="1" parent="WIyWlLk6GJQsqaUBKTNV-1" source="6mV9TBzsEhCEu78aH1kM-1" target="6mV9TBzsEhCEu78aH1kM-0">
          <mxGeometry relative="1" as="geometry" />
        </mxCell>
        <mxCell id="6mV9TBzsEhCEu78aH1kM-1" value="`P_N, C_N`" style="text;html=1;align=center;verticalAlign=middle;whiteSpace=wrap;rounded=0;" vertex="1" parent="WIyWlLk6GJQsqaUBKTNV-1">
          <mxGeometry x="384" y="50" width="60" height="30" as="geometry" />
        </mxCell>
        <mxCell id="6mV9TBzsEhCEu78aH1kM-19" value="Rolling selection" style="swimlane;whiteSpace=wrap;html=1;" vertex="1" parent="WIyWlLk6GJQsqaUBKTNV-1">
          <mxGeometry x="60.75" y="954" width="706.5" height="1600" as="geometry">
            <mxRectangle x="64" y="120" width="130" height="30" as="alternateBounds" />
          </mxGeometry>
        </mxCell>
        <mxCell id="6mV9TBzsEhCEu78aH1kM-25" value="" style="group" vertex="1" connectable="0" parent="6mV9TBzsEhCEu78aH1kM-19">
          <mxGeometry x="216" y="30" width="268" height="30" as="geometry" />
        </mxCell>
        <mxCell id="6mV9TBzsEhCEu78aH1kM-26" value="`P_N = KT_N, UT_N`" style="text;html=1;align=center;verticalAlign=middle;whiteSpace=wrap;rounded=0;" vertex="1" parent="6mV9TBzsEhCEu78aH1kM-25">
          <mxGeometry x="144" width="124" height="30" as="geometry" />
        </mxCell>
        <mxCell id="6mV9TBzsEhCEu78aH1kM-27" value="`P_1 = KT_1, UT_1`" style="text;html=1;align=center;verticalAlign=middle;whiteSpace=wrap;rounded=0;" vertex="1" parent="6mV9TBzsEhCEu78aH1kM-25">
          <mxGeometry width="124" height="30" as="geometry" />
        </mxCell>
        <mxCell id="6mV9TBzsEhCEu78aH1kM-28" style="edgeStyle=orthogonalEdgeStyle;rounded=0;orthogonalLoop=1;jettySize=auto;html=1;" edge="1" parent="6mV9TBzsEhCEu78aH1kM-25" source="6mV9TBzsEhCEu78aH1kM-27" target="6mV9TBzsEhCEu78aH1kM-26">
          <mxGeometry relative="1" as="geometry" />
        </mxCell>
        <mxCell id="6mV9TBzsEhCEu78aH1kM-34" value="`KT_1`" style="swimlane;whiteSpace=wrap;html=1;" vertex="1" parent="6mV9TBzsEhCEu78aH1kM-19">
          <mxGeometry x="163" y="120" width="114" height="180" as="geometry" />
        </mxCell>
        <mxCell id="6mV9TBzsEhCEu78aH1kM-80" value="`P_1`" style="rounded=0;whiteSpace=wrap;html=1;" vertex="1" parent="6mV9TBzsEhCEu78aH1kM-34">
          <mxGeometry x="20" y="35" width="80" height="25" as="geometry" />
        </mxCell>
        <mxCell id="6mV9TBzsEhCEu78aH1kM-83" value="`P_2`" style="rounded=0;whiteSpace=wrap;html=1;" vertex="1" parent="6mV9TBzsEhCEu78aH1kM-34">
          <mxGeometry x="20" y="70" width="80" height="25" as="geometry" />
        </mxCell>
        <mxCell id="6mV9TBzsEhCEu78aH1kM-35" value="`UT_1`" style="swimlane;whiteSpace=wrap;html=1;" vertex="1" parent="6mV9TBzsEhCEu78aH1kM-19">
          <mxGeometry x="303" y="120" width="104" height="180" as="geometry" />
        </mxCell>
        <mxCell id="6mV9TBzsEhCEu78aH1kM-86" value="`P_1`" style="rounded=0;whiteSpace=wrap;html=1;" vertex="1" parent="6mV9TBzsEhCEu78aH1kM-35">
          <mxGeometry x="12" y="30" width="80" height="25" as="geometry" />
        </mxCell>
        <mxCell id="6mV9TBzsEhCEu78aH1kM-87" value="`P_2`" style="rounded=0;whiteSpace=wrap;html=1;" vertex="1" parent="6mV9TBzsEhCEu78aH1kM-35">
          <mxGeometry x="12" y="65" width="80" height="25" as="geometry" />
        </mxCell>
        <mxCell id="6mV9TBzsEhCEu78aH1kM-88" value="`P_3`" style="rounded=0;whiteSpace=wrap;html=1;" vertex="1" parent="6mV9TBzsEhCEu78aH1kM-35">
          <mxGeometry x="12" y="101" width="80" height="25" as="geometry" />
        </mxCell>
        <mxCell id="6mV9TBzsEhCEu78aH1kM-89" value="`P_4`" style="rounded=0;whiteSpace=wrap;html=1;" vertex="1" parent="6mV9TBzsEhCEu78aH1kM-35">
          <mxGeometry x="12" y="135" width="80" height="25" as="geometry" />
        </mxCell>
        <mxCell id="6mV9TBzsEhCEu78aH1kM-90" value="`KT_1`" style="swimlane;whiteSpace=wrap;html=1;" vertex="1" parent="6mV9TBzsEhCEu78aH1kM-19">
          <mxGeometry x="156" y="930" width="114" height="170" as="geometry" />
        </mxCell>
        <mxCell id="6mV9TBzsEhCEu78aH1kM-91" value="`P_1`" style="rounded=0;whiteSpace=wrap;html=1;" vertex="1" parent="6mV9TBzsEhCEu78aH1kM-90">
          <mxGeometry x="20" y="35" width="80" height="25" as="geometry" />
        </mxCell>
        <mxCell id="6mV9TBzsEhCEu78aH1kM-92" value="&lt;div&gt;`P_2`&lt;/div&gt;" style="rounded=0;whiteSpace=wrap;html=1;" vertex="1" parent="6mV9TBzsEhCEu78aH1kM-90">
          <mxGeometry x="20" y="70" width="80" height="25" as="geometry" />
        </mxCell>
        <mxCell id="6mV9TBzsEhCEu78aH1kM-94" value="`UT_1`" style="swimlane;whiteSpace=wrap;html=1;" vertex="1" parent="6mV9TBzsEhCEu78aH1kM-19">
          <mxGeometry x="296" y="930" width="104" height="170" as="geometry" />
        </mxCell>
        <mxCell id="6mV9TBzsEhCEu78aH1kM-95" value="`P_1, P_2`" style="rounded=0;whiteSpace=wrap;html=1;" vertex="1" parent="6mV9TBzsEhCEu78aH1kM-94">
          <mxGeometry x="12" y="30" width="80" height="25" as="geometry" />
        </mxCell>
        <mxCell id="6mV9TBzsEhCEu78aH1kM-96" value="`P_2, P_3`" style="rounded=0;whiteSpace=wrap;html=1;" vertex="1" parent="6mV9TBzsEhCEu78aH1kM-94">
          <mxGeometry x="12" y="65" width="80" height="25" as="geometry" />
        </mxCell>
        <mxCell id="6mV9TBzsEhCEu78aH1kM-97" value="`P_3, P_4`" style="rounded=0;whiteSpace=wrap;html=1;" vertex="1" parent="6mV9TBzsEhCEu78aH1kM-94">
          <mxGeometry x="12" y="101" width="80" height="25" as="geometry" />
        </mxCell>
        <mxCell id="6mV9TBzsEhCEu78aH1kM-113" value="" style="endArrow=classic;html=1;rounded=0;exitX=1;exitY=0.5;exitDx=0;exitDy=0;entryX=0;entryY=0.5;entryDx=0;entryDy=0;" edge="1" parent="6mV9TBzsEhCEu78aH1kM-19" source="6mV9TBzsEhCEu78aH1kM-91" target="6mV9TBzsEhCEu78aH1kM-95">
          <mxGeometry width="50" height="50" relative="1" as="geometry">
            <mxPoint x="526" y="930" as="sourcePoint" />
            <mxPoint x="576" y="880" as="targetPoint" />
          </mxGeometry>
        </mxCell>
        <mxCell id="6mV9TBzsEhCEu78aH1kM-114" value="" style="endArrow=classic;html=1;rounded=0;exitX=1;exitY=0.5;exitDx=0;exitDy=0;entryX=0;entryY=0.5;entryDx=0;entryDy=0;" edge="1" parent="6mV9TBzsEhCEu78aH1kM-19" source="6mV9TBzsEhCEu78aH1kM-91" target="6mV9TBzsEhCEu78aH1kM-96">
          <mxGeometry width="50" height="50" relative="1" as="geometry">
            <mxPoint x="606" y="748" as="sourcePoint" />
            <mxPoint x="658" y="743" as="targetPoint" />
          </mxGeometry>
        </mxCell>
        <mxCell id="6mV9TBzsEhCEu78aH1kM-115" value="" style="endArrow=classic;html=1;rounded=0;exitX=1;exitY=0.5;exitDx=0;exitDy=0;entryX=0;entryY=0.5;entryDx=0;entryDy=0;" edge="1" parent="6mV9TBzsEhCEu78aH1kM-19" source="6mV9TBzsEhCEu78aH1kM-91" target="6mV9TBzsEhCEu78aH1kM-97">
          <mxGeometry width="50" height="50" relative="1" as="geometry">
            <mxPoint x="606" y="748" as="sourcePoint" />
            <mxPoint x="658" y="778" as="targetPoint" />
          </mxGeometry>
        </mxCell>
        <mxCell id="6mV9TBzsEhCEu78aH1kM-117" value="" style="endArrow=classic;html=1;rounded=0;exitX=1;exitY=0.5;exitDx=0;exitDy=0;entryX=0;entryY=0.5;entryDx=0;entryDy=0;" edge="1" parent="6mV9TBzsEhCEu78aH1kM-19" source="6mV9TBzsEhCEu78aH1kM-92" target="6mV9TBzsEhCEu78aH1kM-95">
          <mxGeometry width="50" height="50" relative="1" as="geometry">
            <mxPoint x="606" y="748" as="sourcePoint" />
            <mxPoint x="658" y="848" as="targetPoint" />
          </mxGeometry>
        </mxCell>
        <mxCell id="6mV9TBzsEhCEu78aH1kM-118" value="" style="endArrow=classic;html=1;rounded=0;exitX=1;exitY=0.5;exitDx=0;exitDy=0;entryX=0;entryY=0.5;entryDx=0;entryDy=0;" edge="1" parent="6mV9TBzsEhCEu78aH1kM-19" source="6mV9TBzsEhCEu78aH1kM-92" target="6mV9TBzsEhCEu78aH1kM-96">
          <mxGeometry width="50" height="50" relative="1" as="geometry">
            <mxPoint x="606" y="783" as="sourcePoint" />
            <mxPoint x="658" y="743" as="targetPoint" />
          </mxGeometry>
        </mxCell>
        <mxCell id="6mV9TBzsEhCEu78aH1kM-119" value="" style="endArrow=classic;html=1;rounded=0;exitX=1;exitY=0.5;exitDx=0;exitDy=0;entryX=0;entryY=0.5;entryDx=0;entryDy=0;" edge="1" parent="6mV9TBzsEhCEu78aH1kM-19" source="6mV9TBzsEhCEu78aH1kM-92" target="6mV9TBzsEhCEu78aH1kM-97">
          <mxGeometry width="50" height="50" relative="1" as="geometry">
            <mxPoint x="606" y="783" as="sourcePoint" />
            <mxPoint x="658" y="778" as="targetPoint" />
          </mxGeometry>
        </mxCell>
        <mxCell id="6mV9TBzsEhCEu78aH1kM-244" style="edgeStyle=orthogonalEdgeStyle;rounded=0;orthogonalLoop=1;jettySize=auto;html=1;exitX=1;exitY=0.5;exitDx=0;exitDy=0;entryX=1;entryY=0.25;entryDx=0;entryDy=0;" edge="1" parent="6mV9TBzsEhCEu78aH1kM-19" source="6mV9TBzsEhCEu78aH1kM-125" target="6mV9TBzsEhCEu78aH1kM-183">
          <mxGeometry relative="1" as="geometry">
            <Array as="points">
              <mxPoint x="616" y="210" />
              <mxPoint x="616" y="380" />
            </Array>
          </mxGeometry>
        </mxCell>
        <mxCell id="6mV9TBzsEhCEu78aH1kM-125" value="`C_1`" style="swimlane;whiteSpace=wrap;html=1;" vertex="1" parent="6mV9TBzsEhCEu78aH1kM-19">
          <mxGeometry x="433" y="120" width="104" height="180" as="geometry" />
        </mxCell>
        <mxCell id="6mV9TBzsEhCEu78aH1kM-126" value="1" style="rounded=0;whiteSpace=wrap;html=1;" vertex="1" parent="6mV9TBzsEhCEu78aH1kM-125">
          <mxGeometry x="12" y="30" width="80" height="25" as="geometry" />
        </mxCell>
        <mxCell id="6mV9TBzsEhCEu78aH1kM-127" value="1" style="rounded=0;whiteSpace=wrap;html=1;" vertex="1" parent="6mV9TBzsEhCEu78aH1kM-125">
          <mxGeometry x="12" y="65" width="80" height="25" as="geometry" />
        </mxCell>
        <mxCell id="6mV9TBzsEhCEu78aH1kM-128" value="1" style="rounded=0;whiteSpace=wrap;html=1;" vertex="1" parent="6mV9TBzsEhCEu78aH1kM-125">
          <mxGeometry x="12" y="101" width="80" height="25" as="geometry" />
        </mxCell>
        <mxCell id="6mV9TBzsEhCEu78aH1kM-129" value="0" style="rounded=0;whiteSpace=wrap;html=1;" vertex="1" parent="6mV9TBzsEhCEu78aH1kM-125">
          <mxGeometry x="12" y="135" width="80" height="25" as="geometry" />
        </mxCell>
        <mxCell id="6mV9TBzsEhCEu78aH1kM-131" value="`C_1`" style="swimlane;whiteSpace=wrap;html=1;" vertex="1" parent="6mV9TBzsEhCEu78aH1kM-19">
          <mxGeometry x="431" y="930" width="104" height="170" as="geometry" />
        </mxCell>
        <mxCell id="6mV9TBzsEhCEu78aH1kM-132" value="1" style="rounded=0;whiteSpace=wrap;html=1;" vertex="1" parent="6mV9TBzsEhCEu78aH1kM-131">
          <mxGeometry x="12" y="30" width="80" height="25" as="geometry" />
        </mxCell>
        <mxCell id="6mV9TBzsEhCEu78aH1kM-133" value="1" style="rounded=0;whiteSpace=wrap;html=1;" vertex="1" parent="6mV9TBzsEhCEu78aH1kM-131">
          <mxGeometry x="12" y="65" width="80" height="25" as="geometry" />
        </mxCell>
        <mxCell id="6mV9TBzsEhCEu78aH1kM-134" value="0" style="rounded=0;whiteSpace=wrap;html=1;" vertex="1" parent="6mV9TBzsEhCEu78aH1kM-131">
          <mxGeometry x="12" y="101" width="80" height="25" as="geometry" />
        </mxCell>
        <mxCell id="6mV9TBzsEhCEu78aH1kM-136" value="&lt;div&gt;Given an example of `P_1 = KT_1, UT_1`&amp;nbsp;&lt;/div&gt;&lt;div&gt;where `&quot;len&quot;(KT_1) = 2`, `&quot;len&quot;(UT_1) = 4` and `P_4` in `UT_1` is `&quot;PCC&quot;`&lt;/div&gt;" style="text;html=1;align=center;verticalAlign=middle;whiteSpace=wrap;rounded=0;" vertex="1" parent="6mV9TBzsEhCEu78aH1kM-19">
          <mxGeometry y="60" width="700" height="30" as="geometry" />
        </mxCell>
        <mxCell id="6mV9TBzsEhCEu78aH1kM-234" style="edgeStyle=orthogonalEdgeStyle;rounded=0;orthogonalLoop=1;jettySize=auto;html=1;entryX=1;entryY=0.5;entryDx=0;entryDy=0;" edge="1" parent="6mV9TBzsEhCEu78aH1kM-19" source="6mV9TBzsEhCEu78aH1kM-183" target="6mV9TBzsEhCEu78aH1kM-225">
          <mxGeometry relative="1" as="geometry">
            <Array as="points">
              <mxPoint x="616" y="430" />
              <mxPoint x="616" y="620" />
            </Array>
          </mxGeometry>
        </mxCell>
        <mxCell id="6mV9TBzsEhCEu78aH1kM-183" value="Rolling selection on `UT_1`" style="swimlane;whiteSpace=wrap;html=1;" vertex="1" parent="6mV9TBzsEhCEu78aH1kM-19">
          <mxGeometry x="148" y="330" width="387" height="200" as="geometry" />
        </mxCell>
        <mxCell id="6mV9TBzsEhCEu78aH1kM-184" value="`P_1`" style="rounded=0;whiteSpace=wrap;html=1;" vertex="1" parent="6mV9TBzsEhCEu78aH1kM-183">
          <mxGeometry x="12" y="30" width="80" height="25" as="geometry" />
        </mxCell>
        <mxCell id="6mV9TBzsEhCEu78aH1kM-185" value="`P_2`" style="rounded=0;whiteSpace=wrap;html=1;" vertex="1" parent="6mV9TBzsEhCEu78aH1kM-183">
          <mxGeometry x="107" y="30" width="80" height="25" as="geometry" />
        </mxCell>
        <mxCell id="6mV9TBzsEhCEu78aH1kM-186" value="`P_3`" style="rounded=0;whiteSpace=wrap;html=1;" vertex="1" parent="6mV9TBzsEhCEu78aH1kM-183">
          <mxGeometry x="203" y="30" width="80" height="25" as="geometry" />
        </mxCell>
        <mxCell id="6mV9TBzsEhCEu78aH1kM-187" value="`P_4`" style="rounded=0;whiteSpace=wrap;html=1;" vertex="1" parent="6mV9TBzsEhCEu78aH1kM-183">
          <mxGeometry x="293" y="30" width="80" height="25" as="geometry" />
        </mxCell>
        <mxCell id="6mV9TBzsEhCEu78aH1kM-194" value="" style="shape=crossbar;whiteSpace=wrap;html=1;rounded=1;" vertex="1" parent="6mV9TBzsEhCEu78aH1kM-183">
          <mxGeometry x="12" y="60" width="177.5" height="20" as="geometry" />
        </mxCell>
        <mxCell id="6mV9TBzsEhCEu78aH1kM-201" value="" style="shape=crossbar;whiteSpace=wrap;html=1;rounded=1;" vertex="1" parent="6mV9TBzsEhCEu78aH1kM-183">
          <mxGeometry x="98.25" y="84" width="190.5" height="20" as="geometry" />
        </mxCell>
        <mxCell id="6mV9TBzsEhCEu78aH1kM-202" value="" style="shape=crossbar;whiteSpace=wrap;html=1;rounded=1;" vertex="1" parent="6mV9TBzsEhCEu78aH1kM-183">
          <mxGeometry x="203" y="108" width="173" height="20" as="geometry" />
        </mxCell>
        <mxCell id="6mV9TBzsEhCEu78aH1kM-204" value="" style="shape=curlyBracket;whiteSpace=wrap;html=1;rounded=1;labelPosition=left;verticalLabelPosition=middle;align=right;verticalAlign=middle;rotation=-90;" vertex="1" parent="6mV9TBzsEhCEu78aH1kM-183">
          <mxGeometry x="279.5" y="60" width="20" height="176" as="geometry" />
        </mxCell>
        <mxCell id="6mV9TBzsEhCEu78aH1kM-205" value="" style="shape=curlyBracket;whiteSpace=wrap;html=1;rounded=1;labelPosition=left;verticalLabelPosition=middle;align=right;verticalAlign=middle;rotation=-90;" vertex="1" parent="6mV9TBzsEhCEu78aH1kM-183">
          <mxGeometry x="137" y="97" width="20" height="102" as="geometry" />
        </mxCell>
        <mxCell id="6mV9TBzsEhCEu78aH1kM-206" value="k = 2" style="text;html=1;align=center;verticalAlign=middle;whiteSpace=wrap;rounded=0;" vertex="1" parent="6mV9TBzsEhCEu78aH1kM-183">
          <mxGeometry x="259.5" y="165" width="60" height="30" as="geometry" />
        </mxCell>
        <mxCell id="6mV9TBzsEhCEu78aH1kM-207" value="d = 1" style="text;html=1;align=center;verticalAlign=middle;whiteSpace=wrap;rounded=0;" vertex="1" parent="6mV9TBzsEhCEu78aH1kM-183">
          <mxGeometry x="117" y="165" width="60" height="30" as="geometry" />
        </mxCell>
        <mxCell id="6mV9TBzsEhCEu78aH1kM-212" value="`KT_1`" style="swimlane;whiteSpace=wrap;html=1;" vertex="1" parent="6mV9TBzsEhCEu78aH1kM-19">
          <mxGeometry x="156" y="730" width="114" height="170" as="geometry" />
        </mxCell>
        <mxCell id="6mV9TBzsEhCEu78aH1kM-213" value="`P_1`" style="rounded=0;whiteSpace=wrap;html=1;" vertex="1" parent="6mV9TBzsEhCEu78aH1kM-212">
          <mxGeometry x="20" y="35" width="80" height="25" as="geometry" />
        </mxCell>
        <mxCell id="6mV9TBzsEhCEu78aH1kM-214" value="&lt;div&gt;`P_2`&lt;/div&gt;" style="rounded=0;whiteSpace=wrap;html=1;" vertex="1" parent="6mV9TBzsEhCEu78aH1kM-212">
          <mxGeometry x="20" y="70" width="80" height="25" as="geometry" />
        </mxCell>
        <mxCell id="6mV9TBzsEhCEu78aH1kM-215" value="`UT_1`" style="swimlane;whiteSpace=wrap;html=1;" vertex="1" parent="6mV9TBzsEhCEu78aH1kM-19">
          <mxGeometry x="294.5" y="730" width="107" height="170" as="geometry" />
        </mxCell>
        <mxCell id="6mV9TBzsEhCEu78aH1kM-216" value="`P_1, P_2`" style="rounded=0;whiteSpace=wrap;html=1;" vertex="1" parent="6mV9TBzsEhCEu78aH1kM-215">
          <mxGeometry x="12" y="30" width="80" height="25" as="geometry" />
        </mxCell>
        <mxCell id="6mV9TBzsEhCEu78aH1kM-217" value="`P_2, P_3`" style="rounded=0;whiteSpace=wrap;html=1;" vertex="1" parent="6mV9TBzsEhCEu78aH1kM-215">
          <mxGeometry x="12" y="65" width="80" height="25" as="geometry" />
        </mxCell>
        <mxCell id="6mV9TBzsEhCEu78aH1kM-218" value="`P_3, P_4`" style="rounded=0;whiteSpace=wrap;html=1;" vertex="1" parent="6mV9TBzsEhCEu78aH1kM-215">
          <mxGeometry x="12" y="101" width="80" height="25" as="geometry" />
        </mxCell>
        <mxCell id="6mV9TBzsEhCEu78aH1kM-245" style="edgeStyle=orthogonalEdgeStyle;rounded=0;orthogonalLoop=1;jettySize=auto;html=1;exitX=0;exitY=0.5;exitDx=0;exitDy=0;entryX=0;entryY=0.5;entryDx=0;entryDy=0;" edge="1" parent="6mV9TBzsEhCEu78aH1kM-19" source="6mV9TBzsEhCEu78aH1kM-225" target="6mV9TBzsEhCEu78aH1kM-212">
          <mxGeometry relative="1" as="geometry">
            <Array as="points">
              <mxPoint x="56" y="620" />
              <mxPoint x="56" y="815" />
            </Array>
          </mxGeometry>
        </mxCell>
        <mxCell id="6mV9TBzsEhCEu78aH1kM-225" value="AND the rolling selected parts in `C_1`" style="swimlane;whiteSpace=wrap;html=1;" vertex="1" parent="6mV9TBzsEhCEu78aH1kM-19">
          <mxGeometry x="148" y="540" width="382" height="160" as="geometry" />
        </mxCell>
        <mxCell id="6mV9TBzsEhCEu78aH1kM-226" value="1" style="rounded=0;whiteSpace=wrap;html=1;" vertex="1" parent="6mV9TBzsEhCEu78aH1kM-225">
          <mxGeometry x="12" y="30" width="80" height="25" as="geometry" />
        </mxCell>
        <mxCell id="6mV9TBzsEhCEu78aH1kM-227" value="1" style="rounded=0;whiteSpace=wrap;html=1;" vertex="1" parent="6mV9TBzsEhCEu78aH1kM-225">
          <mxGeometry x="108" y="30" width="80" height="25" as="geometry" />
        </mxCell>
        <mxCell id="6mV9TBzsEhCEu78aH1kM-228" value="1" style="rounded=0;whiteSpace=wrap;html=1;" vertex="1" parent="6mV9TBzsEhCEu78aH1kM-225">
          <mxGeometry x="201.5" y="30" width="80" height="25" as="geometry" />
        </mxCell>
        <mxCell id="6mV9TBzsEhCEu78aH1kM-229" value="0" style="rounded=0;whiteSpace=wrap;html=1;" vertex="1" parent="6mV9TBzsEhCEu78aH1kM-225">
          <mxGeometry x="296" y="30" width="80" height="25" as="geometry" />
        </mxCell>
        <mxCell id="6mV9TBzsEhCEu78aH1kM-230" value="&lt;br&gt;&lt;div&gt;1 AND 1 = 1&lt;/div&gt;" style="shape=crossbar;whiteSpace=wrap;html=1;rounded=1;" vertex="1" parent="6mV9TBzsEhCEu78aH1kM-225">
          <mxGeometry x="12" y="59" width="177.5" height="20" as="geometry" />
        </mxCell>
        <mxCell id="6mV9TBzsEhCEu78aH1kM-231" value="&lt;div&gt;&lt;br&gt;&lt;/div&gt;&lt;div&gt;1 AND 1 = 1&lt;br&gt;&lt;/div&gt;" style="shape=crossbar;whiteSpace=wrap;html=1;rounded=1;" vertex="1" parent="6mV9TBzsEhCEu78aH1kM-225">
          <mxGeometry x="95.75" y="90" width="190.5" height="20" as="geometry" />
        </mxCell>
        <mxCell id="6mV9TBzsEhCEu78aH1kM-232" value="&lt;div&gt;&lt;br&gt;&lt;/div&gt;&lt;div&gt;1 AND 0 = 0&lt;br&gt;&lt;/div&gt;" style="shape=crossbar;whiteSpace=wrap;html=1;rounded=1;" vertex="1" parent="6mV9TBzsEhCEu78aH1kM-225">
          <mxGeometry x="203" y="120" width="173" height="20" as="geometry" />
        </mxCell>
        <mxCell id="6mV9TBzsEhCEu78aH1kM-246" value="`C_1`" style="swimlane;whiteSpace=wrap;html=1;" vertex="1" parent="6mV9TBzsEhCEu78aH1kM-19">
          <mxGeometry x="431" y="730" width="104" height="170" as="geometry" />
        </mxCell>
        <mxCell id="6mV9TBzsEhCEu78aH1kM-247" value="1" style="rounded=0;whiteSpace=wrap;html=1;" vertex="1" parent="6mV9TBzsEhCEu78aH1kM-246">
          <mxGeometry x="12" y="30" width="80" height="25" as="geometry" />
        </mxCell>
        <mxCell id="6mV9TBzsEhCEu78aH1kM-248" value="1" style="rounded=0;whiteSpace=wrap;html=1;" vertex="1" parent="6mV9TBzsEhCEu78aH1kM-246">
          <mxGeometry x="12" y="65" width="80" height="25" as="geometry" />
        </mxCell>
        <mxCell id="6mV9TBzsEhCEu78aH1kM-249" value="0" style="rounded=0;whiteSpace=wrap;html=1;" vertex="1" parent="6mV9TBzsEhCEu78aH1kM-246">
          <mxGeometry x="12" y="101" width="80" height="25" as="geometry" />
        </mxCell>
        <mxCell id="6mV9TBzsEhCEu78aH1kM-274" value="`KT_1`" style="swimlane;whiteSpace=wrap;html=1;" vertex="1" parent="6mV9TBzsEhCEu78aH1kM-19">
          <mxGeometry x="156" y="1120" width="114" height="360" as="geometry" />
        </mxCell>
        <mxCell id="6mV9TBzsEhCEu78aH1kM-275" value="`P_1`" style="rounded=0;whiteSpace=wrap;html=1;" vertex="1" parent="6mV9TBzsEhCEu78aH1kM-274">
          <mxGeometry x="20" y="30" width="80" height="25" as="geometry" />
        </mxCell>
        <mxCell id="6mV9TBzsEhCEu78aH1kM-276" value="&lt;div&gt;`P_1`&lt;/div&gt;" style="rounded=0;whiteSpace=wrap;html=1;" vertex="1" parent="6mV9TBzsEhCEu78aH1kM-274">
          <mxGeometry x="20" y="66" width="80" height="25" as="geometry" />
        </mxCell>
        <mxCell id="6mV9TBzsEhCEu78aH1kM-291" value="&lt;div&gt;`P_1`&lt;/div&gt;" style="rounded=0;whiteSpace=wrap;html=1;" vertex="1" parent="6mV9TBzsEhCEu78aH1kM-274">
          <mxGeometry x="20" y="103" width="80" height="25" as="geometry" />
        </mxCell>
        <mxCell id="6mV9TBzsEhCEu78aH1kM-297" value="`P_3`" style="rounded=0;whiteSpace=wrap;html=1;" vertex="1" parent="6mV9TBzsEhCEu78aH1kM-274">
          <mxGeometry x="20" y="248" width="80" height="25" as="geometry" />
        </mxCell>
        <mxCell id="6mV9TBzsEhCEu78aH1kM-298" value="&lt;div&gt;`P_3`&lt;/div&gt;" style="rounded=0;whiteSpace=wrap;html=1;" vertex="1" parent="6mV9TBzsEhCEu78aH1kM-274">
          <mxGeometry x="20" y="284" width="80" height="25" as="geometry" />
        </mxCell>
        <mxCell id="6mV9TBzsEhCEu78aH1kM-299" value="&lt;div&gt;`P_3`&lt;/div&gt;" style="rounded=0;whiteSpace=wrap;html=1;" vertex="1" parent="6mV9TBzsEhCEu78aH1kM-274">
          <mxGeometry x="20" y="320" width="80" height="25" as="geometry" />
        </mxCell>
        <mxCell id="6mV9TBzsEhCEu78aH1kM-294" value="`P_2`" style="rounded=0;whiteSpace=wrap;html=1;" vertex="1" parent="6mV9TBzsEhCEu78aH1kM-274">
          <mxGeometry x="20" y="139" width="80" height="25" as="geometry" />
        </mxCell>
        <mxCell id="6mV9TBzsEhCEu78aH1kM-295" value="&lt;div&gt;`P_2`&lt;/div&gt;" style="rounded=0;whiteSpace=wrap;html=1;" vertex="1" parent="6mV9TBzsEhCEu78aH1kM-274">
          <mxGeometry x="20" y="175" width="80" height="25" as="geometry" />
        </mxCell>
        <mxCell id="6mV9TBzsEhCEu78aH1kM-296" value="&lt;div&gt;`P_2`&lt;/div&gt;" style="rounded=0;whiteSpace=wrap;html=1;" vertex="1" parent="6mV9TBzsEhCEu78aH1kM-274">
          <mxGeometry x="20" y="211" width="80" height="25" as="geometry" />
        </mxCell>
        <mxCell id="6mV9TBzsEhCEu78aH1kM-277" value="`UT_1`" style="swimlane;whiteSpace=wrap;html=1;" vertex="1" parent="6mV9TBzsEhCEu78aH1kM-19">
          <mxGeometry x="296" y="1120" width="104" height="360" as="geometry" />
        </mxCell>
        <mxCell id="6mV9TBzsEhCEu78aH1kM-278" value="`P_1, P_2`" style="rounded=0;whiteSpace=wrap;html=1;" vertex="1" parent="6mV9TBzsEhCEu78aH1kM-277">
          <mxGeometry x="12" y="30" width="80" height="25" as="geometry" />
        </mxCell>
        <mxCell id="6mV9TBzsEhCEu78aH1kM-279" value="`P_2, P_3`" style="rounded=0;whiteSpace=wrap;html=1;" vertex="1" parent="6mV9TBzsEhCEu78aH1kM-277">
          <mxGeometry x="12" y="65" width="80" height="25" as="geometry" />
        </mxCell>
        <mxCell id="6mV9TBzsEhCEu78aH1kM-280" value="`P_3, P_4`" style="rounded=0;whiteSpace=wrap;html=1;" vertex="1" parent="6mV9TBzsEhCEu78aH1kM-277">
          <mxGeometry x="12" y="101" width="80" height="25" as="geometry" />
        </mxCell>
        <mxCell id="6mV9TBzsEhCEu78aH1kM-300" value="`P_1, P_2`" style="rounded=0;whiteSpace=wrap;html=1;" vertex="1" parent="6mV9TBzsEhCEu78aH1kM-277">
          <mxGeometry x="12" y="140" width="80" height="25" as="geometry" />
        </mxCell>
        <mxCell id="6mV9TBzsEhCEu78aH1kM-301" value="`P_2, P_3`" style="rounded=0;whiteSpace=wrap;html=1;" vertex="1" parent="6mV9TBzsEhCEu78aH1kM-277">
          <mxGeometry x="12" y="175" width="80" height="25" as="geometry" />
        </mxCell>
        <mxCell id="6mV9TBzsEhCEu78aH1kM-302" value="`P_3, P_4`" style="rounded=0;whiteSpace=wrap;html=1;" vertex="1" parent="6mV9TBzsEhCEu78aH1kM-277">
          <mxGeometry x="12" y="211" width="80" height="25" as="geometry" />
        </mxCell>
        <mxCell id="6mV9TBzsEhCEu78aH1kM-303" value="`P_1, P_2`" style="rounded=0;whiteSpace=wrap;html=1;" vertex="1" parent="6mV9TBzsEhCEu78aH1kM-277">
          <mxGeometry x="14" y="250" width="80" height="25" as="geometry" />
        </mxCell>
        <mxCell id="6mV9TBzsEhCEu78aH1kM-304" value="`P_2, P_3`" style="rounded=0;whiteSpace=wrap;html=1;" vertex="1" parent="6mV9TBzsEhCEu78aH1kM-277">
          <mxGeometry x="14" y="285" width="80" height="25" as="geometry" />
        </mxCell>
        <mxCell id="6mV9TBzsEhCEu78aH1kM-305" value="`P_3, P_4`" style="rounded=0;whiteSpace=wrap;html=1;" vertex="1" parent="6mV9TBzsEhCEu78aH1kM-277">
          <mxGeometry x="14" y="321" width="80" height="25" as="geometry" />
        </mxCell>
        <mxCell id="6mV9TBzsEhCEu78aH1kM-287" value="`C_1`" style="swimlane;whiteSpace=wrap;html=1;" vertex="1" parent="6mV9TBzsEhCEu78aH1kM-19">
          <mxGeometry x="431" y="1120" width="104" height="360" as="geometry" />
        </mxCell>
        <mxCell id="6mV9TBzsEhCEu78aH1kM-288" value="1" style="rounded=0;whiteSpace=wrap;html=1;" vertex="1" parent="6mV9TBzsEhCEu78aH1kM-287">
          <mxGeometry x="12" y="30" width="80" height="25" as="geometry" />
        </mxCell>
        <mxCell id="6mV9TBzsEhCEu78aH1kM-289" value="1" style="rounded=0;whiteSpace=wrap;html=1;" vertex="1" parent="6mV9TBzsEhCEu78aH1kM-287">
          <mxGeometry x="12" y="65" width="80" height="25" as="geometry" />
        </mxCell>
        <mxCell id="6mV9TBzsEhCEu78aH1kM-290" value="0" style="rounded=0;whiteSpace=wrap;html=1;" vertex="1" parent="6mV9TBzsEhCEu78aH1kM-287">
          <mxGeometry x="12" y="101" width="80" height="25" as="geometry" />
        </mxCell>
        <mxCell id="6mV9TBzsEhCEu78aH1kM-306" value="1" style="rounded=0;whiteSpace=wrap;html=1;" vertex="1" parent="6mV9TBzsEhCEu78aH1kM-287">
          <mxGeometry x="12" y="140" width="80" height="25" as="geometry" />
        </mxCell>
        <mxCell id="6mV9TBzsEhCEu78aH1kM-307" value="1" style="rounded=0;whiteSpace=wrap;html=1;" vertex="1" parent="6mV9TBzsEhCEu78aH1kM-287">
          <mxGeometry x="12" y="175" width="80" height="25" as="geometry" />
        </mxCell>
        <mxCell id="6mV9TBzsEhCEu78aH1kM-308" value="0" style="rounded=0;whiteSpace=wrap;html=1;" vertex="1" parent="6mV9TBzsEhCEu78aH1kM-287">
          <mxGeometry x="12" y="211" width="80" height="25" as="geometry" />
        </mxCell>
        <mxCell id="6mV9TBzsEhCEu78aH1kM-309" value="1" style="rounded=0;whiteSpace=wrap;html=1;" vertex="1" parent="6mV9TBzsEhCEu78aH1kM-287">
          <mxGeometry x="12" y="250" width="80" height="25" as="geometry" />
        </mxCell>
        <mxCell id="6mV9TBzsEhCEu78aH1kM-310" value="1" style="rounded=0;whiteSpace=wrap;html=1;" vertex="1" parent="6mV9TBzsEhCEu78aH1kM-287">
          <mxGeometry x="12" y="285" width="80" height="25" as="geometry" />
        </mxCell>
        <mxCell id="6mV9TBzsEhCEu78aH1kM-311" value="0" style="rounded=0;whiteSpace=wrap;html=1;" vertex="1" parent="6mV9TBzsEhCEu78aH1kM-287">
          <mxGeometry x="12" y="321" width="80" height="25" as="geometry" />
        </mxCell>
        <mxCell id="6mV9TBzsEhCEu78aH1kM-312" style="edgeStyle=orthogonalEdgeStyle;rounded=0;orthogonalLoop=1;jettySize=auto;html=1;exitX=1;exitY=0.5;exitDx=0;exitDy=0;entryX=0;entryY=0.5;entryDx=0;entryDy=0;" edge="1" parent="6mV9TBzsEhCEu78aH1kM-19" source="6mV9TBzsEhCEu78aH1kM-275" target="6mV9TBzsEhCEu78aH1kM-278">
          <mxGeometry relative="1" as="geometry" />
        </mxCell>
        <mxCell id="6mV9TBzsEhCEu78aH1kM-313" style="edgeStyle=orthogonalEdgeStyle;rounded=0;orthogonalLoop=1;jettySize=auto;html=1;exitX=1;exitY=0.5;exitDx=0;exitDy=0;entryX=0;entryY=0.5;entryDx=0;entryDy=0;" edge="1" parent="6mV9TBzsEhCEu78aH1kM-19" source="6mV9TBzsEhCEu78aH1kM-278" target="6mV9TBzsEhCEu78aH1kM-288">
          <mxGeometry relative="1" as="geometry" />
        </mxCell>
        <mxCell id="6mV9TBzsEhCEu78aH1kM-320" style="edgeStyle=orthogonalEdgeStyle;rounded=0;orthogonalLoop=1;jettySize=auto;html=1;exitX=0.5;exitY=1;exitDx=0;exitDy=0;entryX=0.5;entryY=0;entryDx=0;entryDy=0;" edge="1" parent="6mV9TBzsEhCEu78aH1kM-19" source="6mV9TBzsEhCEu78aH1kM-316" target="6mV9TBzsEhCEu78aH1kM-318">
          <mxGeometry relative="1" as="geometry" />
        </mxCell>
        <mxCell id="6mV9TBzsEhCEu78aH1kM-316" value="&lt;font style=&quot;font-size: 14px;&quot;&gt;`P_(R1), C_(R1)`&lt;/font&gt;" style="text;html=1;align=center;verticalAlign=middle;whiteSpace=wrap;rounded=0;" vertex="1" parent="6mV9TBzsEhCEu78aH1kM-19">
          <mxGeometry x="586" y="1147.5" width="104" height="30" as="geometry" />
        </mxCell>
        <mxCell id="6mV9TBzsEhCEu78aH1kM-317" style="edgeStyle=orthogonalEdgeStyle;rounded=0;orthogonalLoop=1;jettySize=auto;html=1;exitX=1;exitY=0.5;exitDx=0;exitDy=0;entryX=0;entryY=0.5;entryDx=0;entryDy=0;" edge="1" parent="6mV9TBzsEhCEu78aH1kM-19" source="6mV9TBzsEhCEu78aH1kM-288" target="6mV9TBzsEhCEu78aH1kM-316">
          <mxGeometry relative="1" as="geometry" />
        </mxCell>
        <mxCell id="6mV9TBzsEhCEu78aH1kM-321" style="edgeStyle=orthogonalEdgeStyle;rounded=0;orthogonalLoop=1;jettySize=auto;html=1;exitX=0.5;exitY=1;exitDx=0;exitDy=0;" edge="1" parent="6mV9TBzsEhCEu78aH1kM-19" source="6mV9TBzsEhCEu78aH1kM-318" target="6mV9TBzsEhCEu78aH1kM-319">
          <mxGeometry relative="1" as="geometry" />
        </mxCell>
        <mxCell id="6mV9TBzsEhCEu78aH1kM-318" value="..." style="text;html=1;align=center;verticalAlign=middle;whiteSpace=wrap;rounded=0;" vertex="1" parent="6mV9TBzsEhCEu78aH1kM-19">
          <mxGeometry x="586" y="1285" width="104" height="30" as="geometry" />
        </mxCell>
        <mxCell id="6mV9TBzsEhCEu78aH1kM-324" style="edgeStyle=orthogonalEdgeStyle;rounded=0;orthogonalLoop=1;jettySize=auto;html=1;exitX=0.5;exitY=1;exitDx=0;exitDy=0;entryX=0.5;entryY=0;entryDx=0;entryDy=0;" edge="1" parent="6mV9TBzsEhCEu78aH1kM-19" source="6mV9TBzsEhCEu78aH1kM-319" target="6mV9TBzsEhCEu78aH1kM-323">
          <mxGeometry relative="1" as="geometry" />
        </mxCell>
        <mxCell id="6mV9TBzsEhCEu78aH1kM-319" value="&lt;font style=&quot;font-size: 14px;&quot;&gt;`P_(R9), C_(R9)`&lt;/font&gt;" style="text;html=1;align=center;verticalAlign=middle;whiteSpace=wrap;rounded=0;" vertex="1" parent="6mV9TBzsEhCEu78aH1kM-19">
          <mxGeometry x="586" y="1438.5" width="104" height="30" as="geometry" />
        </mxCell>
        <mxCell id="6mV9TBzsEhCEu78aH1kM-322" style="edgeStyle=orthogonalEdgeStyle;rounded=0;orthogonalLoop=1;jettySize=auto;html=1;" edge="1" parent="6mV9TBzsEhCEu78aH1kM-19" source="6mV9TBzsEhCEu78aH1kM-311" target="6mV9TBzsEhCEu78aH1kM-319">
          <mxGeometry relative="1" as="geometry" />
        </mxCell>
        <mxCell id="6mV9TBzsEhCEu78aH1kM-323" value="&lt;font style=&quot;font-size: 14px;&quot;&gt;`P_(R), C_(R)`&lt;/font&gt;" style="text;html=1;align=center;verticalAlign=middle;whiteSpace=wrap;rounded=0;" vertex="1" parent="6mV9TBzsEhCEu78aH1kM-19">
          <mxGeometry x="316" y="1550" width="104" height="30" as="geometry" />
        </mxCell>
        <mxCell id="6mV9TBzsEhCEu78aH1kM-78" style="edgeStyle=orthogonalEdgeStyle;rounded=0;orthogonalLoop=1;jettySize=auto;html=1;exitX=0.5;exitY=1;exitDx=0;exitDy=0;entryX=0.5;entryY=0;entryDx=0;entryDy=0;" edge="1" parent="WIyWlLk6GJQsqaUBKTNV-1" source="6mV9TBzsEhCEu78aH1kM-36" target="6mV9TBzsEhCEu78aH1kM-19">
          <mxGeometry relative="1" as="geometry" />
        </mxCell>
        <mxCell id="6mV9TBzsEhCEu78aH1kM-36" value="Insert contract cheated text" style="swimlane;whiteSpace=wrap;html=1;" vertex="1" parent="WIyWlLk6GJQsqaUBKTNV-1">
          <mxGeometry x="64" y="370" width="700" height="530" as="geometry">
            <mxRectangle x="64" y="120" width="130" height="30" as="alternateBounds" />
          </mxGeometry>
        </mxCell>
        <mxCell id="6mV9TBzsEhCEu78aH1kM-48" style="edgeStyle=orthogonalEdgeStyle;rounded=0;orthogonalLoop=1;jettySize=auto;html=1;" edge="1" parent="6mV9TBzsEhCEu78aH1kM-36" source="6mV9TBzsEhCEu78aH1kM-38" target="6mV9TBzsEhCEu78aH1kM-47">
          <mxGeometry relative="1" as="geometry" />
        </mxCell>
        <mxCell id="6mV9TBzsEhCEu78aH1kM-49" value="&lt;div&gt;`&quot;PCCT&quot;_(NA)`&lt;/div&gt;" style="edgeLabel;html=1;align=center;verticalAlign=middle;resizable=0;points=[];" vertex="1" connectable="0" parent="6mV9TBzsEhCEu78aH1kM-48">
          <mxGeometry x="-0.1" y="2" relative="1" as="geometry">
            <mxPoint as="offset" />
          </mxGeometry>
        </mxCell>
        <mxCell id="6mV9TBzsEhCEu78aH1kM-38" value="Retrieve text of author that is not in `P_M`" style="rounded=1;whiteSpace=wrap;html=1;" vertex="1" parent="6mV9TBzsEhCEu78aH1kM-36">
          <mxGeometry x="246" y="160" width="150" height="60" as="geometry" />
        </mxCell>
        <mxCell id="6mV9TBzsEhCEu78aH1kM-46" style="edgeStyle=orthogonalEdgeStyle;rounded=0;orthogonalLoop=1;jettySize=auto;html=1;entryX=0;entryY=0.5;entryDx=0;entryDy=0;" edge="1" parent="6mV9TBzsEhCEu78aH1kM-36" source="6mV9TBzsEhCEu78aH1kM-39" target="6mV9TBzsEhCEu78aH1kM-38">
          <mxGeometry relative="1" as="geometry" />
        </mxCell>
        <mxCell id="6mV9TBzsEhCEu78aH1kM-39" value="&lt;div&gt;`P_(NA) = KT_(NA), UT_(NA)`&lt;/div&gt;&lt;div&gt;&lt;br&gt;&lt;/div&gt;&lt;div&gt;`&quot;len&quot;(KT_(NA)) = &quot;len&quot;(KT_(NA))/X`&lt;/div&gt;&lt;div&gt;&lt;br&gt;&lt;/div&gt;&lt;div&gt;`&quot;len&quot;(UT_(NA)) = &quot;len&quot;(UT_(NA))/X`&lt;/div&gt;&lt;div&gt;&lt;br&gt;&lt;/div&gt;&lt;div&gt;`&quot;len&quot;(C_(NA)) = &quot;len&quot;(UT_(NA))/X`&lt;/div&gt;" style="text;html=1;align=center;verticalAlign=middle;whiteSpace=wrap;rounded=0;" vertex="1" parent="6mV9TBzsEhCEu78aH1kM-36">
          <mxGeometry x="36" y="130" width="152" height="120" as="geometry" />
        </mxCell>
        <mxCell id="6mV9TBzsEhCEu78aH1kM-42" value="" style="group" vertex="1" connectable="0" parent="6mV9TBzsEhCEu78aH1kM-36">
          <mxGeometry x="186" y="60" width="411" height="30" as="geometry" />
        </mxCell>
        <mxCell id="6mV9TBzsEhCEu78aH1kM-43" value="`P_(NB) = KT_(NB), UT_(NB), C_(NB)`" style="text;html=1;align=center;verticalAlign=middle;whiteSpace=wrap;rounded=0;" vertex="1" parent="6mV9TBzsEhCEu78aH1kM-42">
          <mxGeometry x="171.5478260869565" width="185.84347826086955" height="30" as="geometry" />
        </mxCell>
        <mxCell id="6mV9TBzsEhCEu78aH1kM-44" value="`P_(NA) = KT_(NA), UT_(NA), C_(NA)`" style="text;html=1;align=center;verticalAlign=middle;whiteSpace=wrap;rounded=0;" vertex="1" parent="6mV9TBzsEhCEu78aH1kM-42">
          <mxGeometry x="-40" width="187.72" height="30" as="geometry" />
        </mxCell>
        <mxCell id="6mV9TBzsEhCEu78aH1kM-45" style="edgeStyle=orthogonalEdgeStyle;rounded=0;orthogonalLoop=1;jettySize=auto;html=1;" edge="1" parent="6mV9TBzsEhCEu78aH1kM-42" source="6mV9TBzsEhCEu78aH1kM-44" target="6mV9TBzsEhCEu78aH1kM-43">
          <mxGeometry relative="1" as="geometry" />
        </mxCell>
        <mxCell id="6mV9TBzsEhCEu78aH1kM-66" style="edgeStyle=orthogonalEdgeStyle;rounded=0;orthogonalLoop=1;jettySize=auto;html=1;" edge="1" parent="6mV9TBzsEhCEu78aH1kM-36" source="6mV9TBzsEhCEu78aH1kM-47" target="6mV9TBzsEhCEu78aH1kM-65">
          <mxGeometry relative="1" as="geometry" />
        </mxCell>
        <mxCell id="6mV9TBzsEhCEu78aH1kM-47" value="Split `&quot;PCCT&quot;_(NA)` into parts with size `X`" style="rounded=1;whiteSpace=wrap;html=1;" vertex="1" parent="6mV9TBzsEhCEu78aH1kM-36">
          <mxGeometry x="476" y="160" width="204" height="60" as="geometry" />
        </mxCell>
        <mxCell id="6mV9TBzsEhCEu78aH1kM-50" value="Insert `M` numbers of partial contract cheated text (`&quot;PCCT_M&quot;`) from `P_(NA)` to `P_(NB)` based on defined PCC rate" style="rounded=1;whiteSpace=wrap;html=1;" vertex="1" parent="6mV9TBzsEhCEu78aH1kM-36">
          <mxGeometry x="20" y="30" width="660" height="25" as="geometry" />
        </mxCell>
        <mxCell id="6mV9TBzsEhCEu78aH1kM-76" style="edgeStyle=orthogonalEdgeStyle;rounded=0;orthogonalLoop=1;jettySize=auto;html=1;exitX=0;exitY=0.5;exitDx=0;exitDy=0;" edge="1" parent="6mV9TBzsEhCEu78aH1kM-36" source="6mV9TBzsEhCEu78aH1kM-65" target="6mV9TBzsEhCEu78aH1kM-75">
          <mxGeometry relative="1" as="geometry" />
        </mxCell>
        <mxCell id="6mV9TBzsEhCEu78aH1kM-65" value="Choose `Y` number of parts to insert into `UT_(NA)`" style="rounded=1;whiteSpace=wrap;html=1;" vertex="1" parent="6mV9TBzsEhCEu78aH1kM-36">
          <mxGeometry x="476" y="370" width="204" height="60" as="geometry" />
        </mxCell>
        <mxCell id="6mV9TBzsEhCEu78aH1kM-67" value="&lt;div&gt;`P_(NA) = KT_(NA), UT_(NA)`&lt;/div&gt;&lt;div&gt;&lt;br&gt;&lt;/div&gt;&lt;div&gt;`&quot;len&quot;(KT_(NA)) = &quot;Y + len&quot;(KT_(NA))/X`&lt;/div&gt;&lt;div&gt;&lt;br&gt;&lt;/div&gt;&lt;div&gt;`&quot;len&quot;(UT_(NA)) = &quot;Y +len&quot;(UT_(NA))/X`&lt;/div&gt;&lt;div&gt;&lt;br&gt;&lt;/div&gt;&lt;div&gt;`&quot;len&quot;(C_(MA)) = Y + &quot;len&quot;(UT_(MA))/X`&lt;br&gt;&lt;/div&gt;" style="text;html=1;align=center;verticalAlign=middle;whiteSpace=wrap;rounded=0;" vertex="1" parent="6mV9TBzsEhCEu78aH1kM-36">
          <mxGeometry x="10" y="340" width="204" height="120" as="geometry" />
        </mxCell>
        <mxCell id="6mV9TBzsEhCEu78aH1kM-77" style="edgeStyle=orthogonalEdgeStyle;rounded=0;orthogonalLoop=1;jettySize=auto;html=1;" edge="1" parent="6mV9TBzsEhCEu78aH1kM-36" source="6mV9TBzsEhCEu78aH1kM-75" target="6mV9TBzsEhCEu78aH1kM-67">
          <mxGeometry relative="1" as="geometry" />
        </mxCell>
        <mxCell id="6mV9TBzsEhCEu78aH1kM-75" value="&lt;div&gt;Update classification `C_(NA)` &lt;br&gt;&lt;/div&gt;&lt;div&gt;with `&quot;PCC&quot;` classification (0) at `&quot;PCC&quot;` location(s)&lt;br&gt;&lt;/div&gt;" style="rounded=1;whiteSpace=wrap;html=1;" vertex="1" parent="6mV9TBzsEhCEu78aH1kM-36">
          <mxGeometry x="246" y="370" width="204" height="60" as="geometry" />
        </mxCell>
      </root>
    </mxGraphModel>
  </diagram>
</mxfile>
